<svg width="1200" height="630" viewBox="0 0 1200 630" fill="none" xmlns="http://www.w3.org/2000/svg">
  <defs>
    <linearGradient id="bg" x1="0" y1="0" x2="1200" y2="630" gradientUnits="userSpaceOnUse">
      <stop stop-color="#0A0F1E"/>
      <stop offset="1" stop-color="#071018"/>
    </linearGradient>
    <linearGradient id="accent" x1="0" y1="0" x2="1200" y2="0" gradientUnits="userSpaceOnUse">
      <stop stop-color="#2DD4BF"/>
      <stop offset="1" stop-color="#60A5FA"/>
    </linearGradient>
    <radialGradient id="glow" cx="0" cy="0" r="1" gradientUnits="userSpaceOnUse" gradientTransform="translate(260 180) rotate(35) scale(260 200)">
      <stop stop-color="#1F2937" stop-opacity="0.9"/>
      <stop offset="1" stop-color="#0B1120" stop-opacity="0"/>
    </radialGradient>
  </defs>
  <rect width="1200" height="630" fill="url(#bg)"/>
  <rect x="80" y="90" width="1040" height="450" rx="24" fill="#0E1526" stroke="rgba(255,255,255,0.08)"/>
  <rect x="80" y="90" width="1040" height="450" rx="24" fill="url(#glow)"/>
  <rect x="110" y="120" width="140" height="36" rx="18" fill="rgba(45,212,191,0.14)" stroke="rgba(45,212,191,0.35)"/>
  <text x="140" y="144" font-family="Inter, Arial, sans-serif" font-size="12" font-weight="700" fill="#7DD3FC" letter-spacing="2">HEALTHCARE</text>

  <text x="130" y="235" font-family="DM Serif Display, Georgia, serif" font-size="44" font-weight="600" fill="#F8FAFC">
    AI Visibility for Healthcare
  </text>
  <text x="130" y="290" font-family="DM Serif Display, Georgia, serif" font-size="42" font-weight="600" fill="#E2E8F0">
    Businesses in 2026
  </text>
  <text x="130" y="340" font-family="Inter, Arial, sans-serif" font-size="16" fill="#94A3B8">
    Trust, compliance, and citation-ready content that earns AI answers.
  </text>

  <g opacity="0.7">
    <circle cx="920" cy="220" r="56" stroke="url(#accent)" stroke-width="2"/>
    <circle cx="920" cy="220" r="20" stroke="#38BDF8" stroke-width="2"/>
    <line x1="920" y1="150" x2="920" y2="290" stroke="#1F2937" stroke-width="2"/>
    <line x1="850" y1="220" x2="990" y2="220" stroke="#1F2937" stroke-width="2"/>
  </g>

  <g opacity="0.65">
    <rect x="880" y="320" width="180" height="140" rx="16" fill="#0B1222" stroke="rgba(96,165,250,0.35)"/>
    <path d="M915 380H950" stroke="#60A5FA" stroke-width="2" stroke-linecap="round"/>
    <path d="M915 404H1005" stroke="#60A5FA" stroke-width="2" stroke-linecap="round"/>
    <path d="M915 428H980" stroke="#60A5FA" stroke-width="2" stroke-linecap="round"/>
  </g>

  <rect x="80" y="540" width="1040" height="6" rx="3" fill="url(#accent)"/>
  <text x="120" y="520" font-family="Inter, Arial, sans-serif" font-size="12" fill="#94A3B8">sachindevmurari.com</text>
  <text x="1010" y="520" font-family="Inter, Arial, sans-serif" font-size="12" fill="#94A3B8">Sachin Devmurari</text>
</svg>
