<?xml version="1.0" encoding="UTF-8"?>
<svg width="1400" height="600" viewBox="0 0 1400 600" fill="none" xmlns="http://www.w3.org/2000/svg">
  <defs>
    <linearGradient id="bg-pattern" x1="0" y1="0" x2="1" y2="1">
      <stop offset="0%" stop-color="#040814"/>
      <stop offset="100%" stop-color="#0d1426"/>
    </linearGradient>
    <linearGradient id="ring" x1="0" y1="0" x2="1" y2="1">
      <stop offset="0%" stop-color="#8b5cf6" stop-opacity="0.9"/>
      <stop offset="100%" stop-color="#00d4aa" stop-opacity="0.9"/>
    </linearGradient>
    <linearGradient id="arc" x1="0" y1="0" x2="1" y2="0">
      <stop offset="0%" stop-color="#00d4aa"/>
      <stop offset="60%" stop-color="#6c5ce7"/>
      <stop offset="100%" stop-color="#d066ff"/>
    </linearGradient>
  </defs>
  <rect width="1400" height="600" fill="url(#bg-pattern)" />
  <g opacity="0.28">
    <circle cx="320" cy="220" r="160" stroke="rgba(255,255,255,0.08)" stroke-width="1.5" fill="none" />
    <circle cx="900" cy="320" r="120" stroke="rgba(255,255,255,0.08)" stroke-width="1" fill="none" />
  </g>
  <path d="M160 420 Q360 320 520 370 Q700 430 860 310 Q1040 220 1260 280" stroke="url(#arc)" stroke-width="6" fill="none" stroke-linecap="round" stroke-linejoin="round" />
  <g stroke="url(#arc)" stroke-width="3">
    <circle cx="520" cy="370" r="8" fill="#fff" />
    <circle cx="860" cy="310" r="8" fill="#fff" />
    <circle cx="1040" cy="220" r="8" fill="#fff" />
  </g>
  <path d="M1180 180 L1280 180 L1280 280 L1180 280 Z" fill="rgba(255,255,255,0.03)" stroke="url(#ring)" stroke-width="2" />
  <path d="M1180 220 L1280 220" stroke="url(#ring)" stroke-width="3" stroke-linecap="round" />
  <circle cx="1240" cy="180" r="12" fill="#fff" opacity="0.7" />
  <g fill="none" stroke="rgba(255,255,255,0.2)" stroke-width="1">
    <circle cx="400" cy="120" r="40" />
    <circle cx="400" cy="120" r="70" stroke-dasharray="4 6" />
    <circle cx="400" cy="120" r="100" opacity="0.15" />
  </g>
  <rect x="220" y="120" width="320" height="220" rx="24" fill="rgba(255,255,255,0.02)" stroke="rgba(255,255,255,0.15)" />
  <rect x="260" y="160" width="220" height="26" rx="12" fill="rgba(0,212,170,0.3)" />
  <rect x="260" y="210" width="260" height="12" rx="6" fill="rgba(255,255,255,0.3)" />
  <rect x="260" y="240" width="200" height="12" rx="6" fill="rgba(255,255,255,0.2)" />
  <rect x="640" y="160" width="360" height="220" rx="24" fill="rgba(0,212,170,0.12)" />
  <circle cx="760" cy="260" r="48" fill="rgba(255,255,255,0.08)" />
  <circle cx="760" cy="260" r="20" fill="url(#ring)" />
  <g opacity="0.6" stroke="rgba(255,255,255,0.2)" stroke-width="1.5">
    <line x1="760" y1="260" x2="900" y2="200" />
    <line x1="900" y1="200" x2="1080" y2="230" />
  </g>
  <text x="340" y="520" fill="rgba(255,255,255,0.6)" font-size="18px" font-family="Inter, sans-serif">B2B SaaS content strategy 2026</text>
</svg>
