<?xml version="1.0" encoding="UTF-8"?>
<svg width="1400" height="600" viewBox="0 0 1400 600" fill="none" xmlns="http://www.w3.org/2000/svg">
  <defs>
    <linearGradient id="aeo-bg" x1="0" y1="0" x2="1400" y2="600">
      <stop offset="0%" stop-color="#050a10" />
      <stop offset="50%" stop-color="#060f1b" />
      <stop offset="100%" stop-color="#0a1524" />
    </linearGradient>
    <linearGradient id="aeo-gradient" x1="0" y1="0" x2="1" y2="1">
      <stop offset="0%" stop-color="#00d4aa" />
      <stop offset="1" stop-color="#8b5cf6" />
    </linearGradient>
  </defs>
  <rect width="1400" height="600" fill="url(#aeo-bg)" />
  <circle cx="320" cy="220" r="180" fill="url(#aeo-gradient)" fill-opacity="0.12" />
  <circle cx="950" cy="300" r="140" fill="#0a142d" stroke="#00d4aa" stroke-opacity="0.35" stroke-width="2" />
  <g stroke="#00d4aa" stroke-width="2" opacity="0.5">
    <circle cx="950" cy="300" r="60" fill="none" />
    <circle cx="950" cy="300" r="90" fill="none" />
    <line x1="880" y1="300" x2="1020" y2="300" stroke-linecap="round" />
    <line x1="950" y1="230" x2="950" y2="370" stroke-linecap="round" />
    <path d="M915 265 L910 260 L950 220 L990 260 L985 265" />
  </g>
  <path d="M220 420 C300 370 410 350 520 370 C690 400 780 330 920 360 C1040 390 1140 320 1230 350" stroke="#6c5ce7" stroke-width="3" stroke-linecap="round" stroke-dasharray="12 10" />
  <g fill="#00d4aa" opacity="0.6">
    <circle cx="580" cy="180" r="12" />
    <circle cx="640" cy="220" r="9" />
    <circle cx="720" cy="200" r="14" />
    <circle cx="820" cy="160" r="7" />
  </g>
  <rect x="180" y="120" width="360" height="200" rx="24" fill="#0e1726" stroke="#00d4aa" stroke-width="1.5" />
  <rect x="210" y="150" width="300" height="140" rx="12" fill="url(#aeo-gradient)" fill-opacity="0.15" />
  <rect x="240" y="180" width="120" height="18" rx="9" fill="#fff" opacity="0.9" />
  <rect x="240" y="210" width="220" height="8" rx="4" fill="#fff" opacity="0.6" />
  <rect x="240" y="230" width="180" height="8" rx="4" fill="#fff" opacity="0.6" />
  <path d="M1040 220 L1200 120 L1320 140 L1320 220 L1180 310 L1040 260 Z" fill="#00d4aa" fill-opacity="0.14" />
  <path d="M1050 260 L1200 260" stroke="#fff" stroke-width="2" stroke-linecap="round" />
  <path d="M1050 280 L1200 280" stroke="#fff" stroke-width="2" stroke-linecap="round" />
  <circle cx="1260" cy="440" r="60" stroke="url(#aeo-gradient)" stroke-width="3" fill="none" />
  <circle cx="1260" cy="440" r="30" fill="#fff" fill-opacity="0.05" />
  <path d="M1200 420 L1260 360 L1320 420" stroke="url(#aeo-gradient)" stroke-width="6" stroke-linecap="round" />
  <path d="M1260 360 L1260 500" stroke="url(#aeo-gradient)" stroke-width="6" stroke-linecap="round" />
  <circle cx="1260" cy="360" r="10" fill="#fff" />
</svg>
